<svg viewBox="0 0 24 24" xmlns="http://www.w3.org/2000/svg">
  <path fill="#005197" fill-rule="evenodd" d="M12 8V2C13.1825 2.53275 14 3.67583 14 5C14 6.32417 13.1825 7.46725 12 8 M10 4C8.89543 4 8 4.89543 8 6C8 7.10457 8.89543 8 10 8V4 M5.59021 10C5.28124 10 5.04622 10.2774 5.09701 10.5822L6.72145 20.3288C6.88218 21.2932 7.71656 22 8.69424 22H13.3057C14.2834 22 15.1178 21.2932 15.2785 20.3288L15.3423 19.9462C15.5563 19.9816 15.776 20 16 20C18.2091 20 20 18.2091 20 16C20 14.0149 18.5539 12.3675 16.6577 12.0538L16.9029 10.5822C16.9537 10.2774 16.7187 10 16.4098 10H5.59021ZM15.6709 17.9742L16.329 14.0257C17.2777 14.1827 18.0012 15.0068 18.0012 16C18.0012 17.1052 17.1052 18.0012 16 18.0012C15.8879 18.0012 15.778 17.992 15.6709 17.9742Z"/>
</svg>
